<svg t="1782834544801" class="icon" viewBox="0 0 1024 1024" version="1.1" xmlns="http://www.w3.org/2000/svg" p-id="7255" width="200" height="200"><path d="M588.672 752.608l-158.368 158.08c-1.92 1.6-13.12 10.528-24.32 10.528-2.56 0-10.24 0-21.12-10.528l-22.4-22.752 99.84-99.808-22.72-22.72-99.84 99.808-90.56-90.528 145.28-144.96-22.72-22.72-144.96 145.28-22.72-22.72 99.84-99.84-22.72-22.72-99.84 99.84-22.72-22.4c-18.24-18.24-9.92-34.88 0-45.44l158.4-158.08 271.648 271.68z" fill="#FFD561" p-id="7256"></path><path d="M838.08 321.6c-85.472 85.44-171.84 129.28-172.8 129.92l-9.28 4.8L631.68 432l4.768-9.28c0.672-0.96 44.16-87.04 129.952-172.8 20.768-20.8 41.92-31.04 64.64-31.04 11.52 0 22.72 2.56 32.352 6.4 9.568 25.6 10.528 60.48-25.312 96.32z" fill="#FFA28D" p-id="7257"></path><path d="M381.76 498.88l45.44-45.44 207.68 207.68-45.44 45.44z m320.64 95.36l-45.12 45.44L481.6 464l45.12-45.44c10.88-10.88 18.56-10.88 21.12-10.88 9.28 0 18.88 6.08 23.04 9.6l131.232 131.2c10.208 10.88 18.528 27.52 0.288 45.76z" fill="#BCBCBC" p-id="7258"></path><path d="M702.4 594.24l-45.12 45.44L481.6 464l45.12-45.44c10.88-10.88 18.56-10.88 21.12-10.88 9.28 0 18.88 6.08 23.04 9.6l131.232 131.2c10.208 10.88 18.528 27.52 0.288 45.76z" fill="#BCBCBC" p-id="7259"></path><path d="M576 496a16 16 0 1 0 32 0 16 16 0 1 0-32 0zM608 528a16 16 0 1 0 32 0 16 16 0 1 0-32 0zM640 560a16 16 0 1 0 32 0 16 16 0 1 0-32 0z" fill="#2D2220" p-id="7260"></path><path d="M860.8 163.2s-40.352-40.32-93.792-40.32c-26.88 0-56.928 10.24-87.328 40.32C589.12 253.76 544 344.32 544 344.32l-45.44-45.44s-19.84-20.16-46.72-20.16c-13.44 0-28.48 5.12-43.52 20.16l-294.08 294.4s-45.44 45.12 0 90.24l22.4 22.72 90.56 90.56 67.84 67.808 22.72 22.752 22.72 22.72c15.04 15.04 30.08 19.808 43.52 19.808 26.88 0 46.72-19.808 46.72-19.808l294.4-294.4c45.12-45.12 0-90.56 0-90.56l-22.72-22.4L679.68 480s90.56-45.12 181.12-135.68 0-181.12 0-181.12zM408.32 887.36c-1.92 1.6-13.12 10.56-24.32 10.56-2.56 0-10.24 0-21.12-10.528l-22.4-22.752 67.84-67.808-22.72-22.72-67.84 67.808-90.56-90.56L340.48 638.4l-22.72-22.72L204.8 728.96l-22.72-22.72 67.84-67.84-22.72-22.72-67.84 67.84-22.72-22.4c-18.24-18.24-9.92-34.88 0-45.44l158.4-158.08 271.68 271.68-158.4 158.08z m181.12-180.8L381.76 498.88l-64-64 45.44-45.44 64 64 207.68 207.68-45.44 45.44z m112.64-159.04c4.48 4.768 8.928 10.88 10.208 17.6 0.96 3.488 1.28 7.328 0.32 11.2-1.248 5.44-4.48 11.232-10.208 16.96l-45.12 45.44-175.36-175.36-32.32-32.32-64-64 45.12-45.44c10.88-10.88 18.56-10.88 21.12-10.88 10.56 0 21.44 8 24.32 10.88l225.92 225.92z m-36.8-96l-9.28 4.8-32.96-32.96 28.16-28.16c6.4-6.08 6.4-16.32 0-22.4a15.424 15.424 0 0 0-22.368 0l-28.192 28.16L567.68 368l4.768-9.28c0.672-0.96 44.16-87.04 129.952-172.8 20.768-20.8 41.92-31.04 64.64-31.04 39.072 0 71.072 30.72 71.072 31.04 3.2 3.2 17.28 17.92 25.28 39.36 0 0.32 0 0.32 0.32 0.64 0.64 1.92 1.28 4.16 1.92 6.4 0.32 0.32 0.32 0.64 0.32 0.96 0.96 2.88 1.632 5.76 1.952 8.64 0.96 4.16 1.28 8.96 1.28 13.44 0 20.16-8 43.2-31.04 66.24C752.64 407.04 666.24 450.88 665.28 451.52z" fill="#2D2220" p-id="7261"></path><path d="M736 304a16 16 0 0 1-11.328-27.296l64-64a16 16 0 0 1 22.624 22.624l-64 64A15.936 15.936 0 0 1 736 304z" fill="#2D2220" p-id="7262"></path></svg>